# xmcd
#
# Track frame offsets:
#  150
#  18432
#  37517
#  54739
#  68400
#  91745
#  113925
#  130755
#  150497
#  176472
#  193585
#  199432
#  221740
#  236282
#
# Disc length: 3185 seconds
#
# Revision: 4
# Processed by: cddbd v1.5.2PL0 Copyright (c) Steve Scherf et al.
# Submitted via: Collectorz.com_Music_Collector 6.10
#
DISCID=b00c6f0e
DTITLE=Weinberger Blues Machine - good moorning Mr. Blues
DYEAR=1994
DGENRE=Blues
TTITLE0=Beast of burden
TTITLE1=Let the good time roll
TTITLE2=Ain't no nothing to tell
TTITLE3=I can't get enough
TTITLE4=Take me to the highway
TTITLE5=It wouldn't be enough for you
TTITLE6=Fly over me
TTITLE7=Dimples
TTITLE8=I don't need no dollar
TTITLE9=Rufus Thomas' opinion/We all got it
TTITLE10=When good old A.G. starts pickin' someone elses guitar got to be a big fun for everyone (Frozen finger Rag)
TTITLE11=Red haired woman
TTITLE12=Sweet Little Number
TTITLE13=Good evening Mr. Blues
EXTD=
EXTT0=
EXTT1=
EXTT2=
EXTT3=
EXTT4=
EXTT5=
EXTT6=
EXTT7=
EXTT8=
EXTT9=
EXTT10=
EXTT11=
EXTT12=
EXTT13=
PLAYORDER=
